<svg width="64" height="64" xmlns="http://www.w3.org/2000/svg" xmlns:xlink="http://www.w3.org/1999/xlink">
  <defs/>
  <g>
    <path stroke="none" fill="#FFFFFF" d="M36 32.75 L36.8 32.8 Q38.3 31 40.3 31 42.65 30.95 43.65 32.65 44.75 31.75 46.25 31.75 47.75 31.75 48.65 32.95 50.7 35.75 52.4 39.8 54 45.75 51.1 49.55 49.45 51.45 46.95 52.35 L41.7 52.75 Q39.65 52.2 37.8 51.1 34.1 48.85 30.45 48.65 24.95 49 25 45.65 25 44.5 25.7 43.65 26.45 42.95 27.55 42.7 29.05 42.5 30.75 42.7 32.85 42.6 32.4 41 L27.85 28.65 Q27.35 27.35 27.85 26.3 28.25 25.55 29.95 25.15 31.6 24.75 32.5 25.45 L33.7 27.05 36 32.75 M27.65 12.55 Q34.2 10.8 39.95 14.15 40.7 14.55 40.95 15.4 41.1 16.2 40.7 16.9 40.25 17.65 39.5 17.9 L37.9 17.75 Q33.6 15.25 28.75 16.45 L28.65 16.45 Q23.85 17.8 21.35 22.15 20.65 23.3 20.3 24.6 L21.9 25.05 Q22.45 25.15 22.6 25.6 L23 26.3 22.5 26.9 17.75 29.85 17.15 30 16.35 29.85 15.85 29.4 13.15 24.45 Q12.95 24.05 13.05 23.65 L13.65 23.15 14.55 23.05 16.35 23.55 Q16.85 21.75 17.8 20.1 21.15 14.3 27.65 12.55"/>
  </g>
</svg>