<svg width="64" height="64" xmlns="http://www.w3.org/2000/svg" xmlns:xlink="http://www.w3.org/1999/xlink">
  <defs/>
  <g>
    <path stroke="none" fill="#FFFFFF" d="M44.05 32.45 Q43.95 33.1 44.6 33.05 46.95 32.85 48.35 34.25 50.05 35.85 49.55 37.75 51 37.95 52.05 39 53.15 40.05 52.95 41.55 52.4 44.9 50.7 48.95 47.6 54.3 42.85 54.9 40.3 55.1 37.85 54 35.4 52.85 33.8 50.55 32.75 48.75 32.25 46.65 31.2 42.5 28.75 39.75 24.55 36.15 27 33.75 27.8 32.95 28.9 32.85 29.95 32.9 30.9 33.5 32.15 34.4 33.2 35.75 34.75 37.2 35.6 35.75 L41.15 23.85 Q41.75 22.55 42.85 22.2 43.65 21.9 45.15 22.85 46.6 23.7 46.75 24.85 L46.45 26.8 44.05 32.45 M32 18.7 Q30.85 18.5 28.9 18.7 L30.6 19.8 Q31.2 20.1 31.35 20.75 31.5 21.35 31.15 21.85 L30.15 22.55 28.95 22.4 22.65 18.5 22.1 17.85 Q21.9 17.45 22 16.95 L22.35 16.2 27.4 10.45 Q27.8 10 28.4 10 29.05 9.9 29.6 10.35 30 10.7 30.05 11.4 30.15 11.95 29.7 12.5 L28.75 13.55 33.35 13.8 Q36.75 14.7 38.9 17.1 L35.25 20.75 Q34.05 19.2 32 18.7 M20.95 30.05 Q21.5 32.15 23.1 33.35 L19.3 37 Q16.85 34.85 15.9 31.4 15.4 29.6 15.65 26.8 L14.6 27.75 Q14 28.2 13.45 28.1 12.7 28.05 12.35 27.65 11.9 27.1 12 26.45 12 25.85 12.45 25.45 L18.4 20.4 Q18.75 20.1 19.15 20.05 L20.1 20.15 20.75 20.7 24.8 27 Q25.1 27.6 24.95 28.2 L24.2 29.2 23.1 29.4 Q22.4 29.25 22.1 28.65 L20.95 26.95 Q20.75 28.9 20.95 30.05"/>
  </g>
</svg>