<svg width="64" height="64" xmlns="http://www.w3.org/2000/svg" xmlns:xlink="http://www.w3.org/1999/xlink">
  <defs/>
  <g>
    <path stroke="none" fill="#FFFFFF" d="M28.9 18.7 Q26.85 19.2 25.65 20.75 L22 17.1 Q24.15 14.7 27.55 13.8 L32.15 13.55 31.2 12.5 Q30.75 11.95 30.85 11.4 30.9 10.7 31.3 10.35 31.85 9.9 32.5 10 33.1 10 33.5 10.45 L38.55 16.2 38.9 16.95 38.8 17.85 38.25 18.5 31.95 22.4 30.75 22.55 Q30.1 22.4 29.75 21.85 29.4 21.35 29.55 20.75 29.7 20.1 30.3 19.8 L32 18.7 Q30.05 18.5 28.9 18.7 M44.05 32.45 Q43.95 33.1 44.6 33.05 46.95 32.85 48.35 34.25 50.05 35.85 49.55 37.75 51 37.95 52.05 39 53.15 40.05 52.95 41.55 52.4 44.9 50.7 48.95 47.6 54.3 42.85 54.9 40.3 55.1 37.85 54 35.4 52.85 33.8 50.55 32.75 48.75 32.25 46.65 31.2 42.5 28.75 39.75 24.55 36.15 27 33.75 27.8 32.95 28.9 32.85 29.95 32.9 30.9 33.5 32.15 34.4 33.2 35.75 34.75 37.2 35.6 35.75 L41.15 23.85 Q41.75 22.55 42.85 22.2 43.65 21.9 45.15 22.85 46.6 23.7 46.75 24.85 L46.45 26.8 44.05 32.45 M20.95 26.95 Q20.75 28.1 20.95 30.05 L22.1 28.35 Q22.4 27.75 23.1 27.6 L24.2 27.8 Q24.8 28.15 24.95 28.8 25.1 29.4 24.8 30 L20.75 36.3 20.1 36.85 19.15 36.95 Q18.75 36.9 18.4 36.6 L12.45 31.55 Q12 31.15 12 30.55 11.9 29.9 12.35 29.35 12.7 28.95 13.45 28.9 14 28.8 14.6 29.25 L15.65 30.2 Q15.4 27.4 15.9 25.6 16.85 22.15 19.3 20 L23.1 23.65 Q21.5 24.85 20.95 26.95"/>
  </g>
</svg>