<svg width="64" height="64" xmlns="http://www.w3.org/2000/svg" xmlns:xlink="http://www.w3.org/1999/xlink">
  <defs/>
  <g>
    <path stroke="none" fill="#FFFFFF" d="M17.7 17.7 Q22.4 13 29 13 L32.65 13.4 33 12 Q33.1 11.6 33.55 11.3 L34.3 11 34.9 11.45 37.85 16.25 38 16.95 37.75 17.7 37.3 18.2 32.35 20.85 31.6 20.95 31.15 20.3 Q30.9 19.9 31.05 19.4 L31.6 17.35 29 17.05 Q24.05 17.05 20.55 20.5 L20.5 20.55 Q17.05 24.1 17.05 29 17.05 29.85 16.45 30.45 15.85 31 15 31 14.15 31 13.6 30.45 13 29.85 13 29 13 22.45 17.7 17.7 M36 32.75 L36.8 32.8 Q38.3 31 40.3 31 42.65 30.95 43.65 32.65 44.75 31.75 46.25 31.75 47.75 31.75 48.65 32.95 50.7 35.75 52.4 39.8 54 45.75 51.1 49.55 49.45 51.45 46.95 52.35 L41.7 52.75 Q39.65 52.2 37.8 51.1 34.1 48.85 30.45 48.65 24.95 49 25 45.65 25 44.5 25.7 43.65 26.45 42.95 27.55 42.7 29.05 42.5 30.75 42.7 32.85 42.6 32.4 41 L27.85 28.65 Q27.35 27.35 27.85 26.3 28.25 25.55 29.95 25.15 31.6 24.75 32.5 25.45 L33.7 27.05 36 32.75"/>
  </g>
</svg>